<?xml version="1.0" encoding="iso-8859-1"?>
<!-- Uploaded to: SVG Repo, www.svgrepo.com, Generator: SVG Repo Mixer Tools -->
<svg fill="#000000" version="1.1" id="Layer_1" xmlns="http://www.w3.org/2000/svg" xmlns:xlink="http://www.w3.org/1999/xlink" 
	 viewBox="0 0 512 512" xml:space="preserve">
<g>
	<g>
		<rect x="178.087" y="311.652" width="33.391" height="66.783"/>
	</g>
</g>
<g>
	<g>
		<rect x="300.522" y="311.652" width="33.391" height="66.783"/>
	</g>
</g>
<g>
	<g>
		<path d="M411.826,311.652h-33.391v100.174h-244.87V311.652h-33.391H66.783v33.391h33.391V512h311.652V345.043h33.391v-33.391
			H411.826z M378.435,478.609h-244.87v-33.391h244.87V478.609z"/>
	</g>
</g>
<g>
	<g>
		<rect x="155.826" y="33.391" width="33.391" height="33.391"/>
	</g>
</g>
<g>
	<g>
		<rect x="322.783" y="155.826" width="33.391" height="33.391"/>
	</g>
</g>
<g>
	<g>
		<rect x="33.391" y="278.261" width="33.391" height="33.391"/>
	</g>
</g>
<g>
	<g>
		<rect x="189.217" width="133.565" height="33.391"/>
	</g>
</g>
<g>
	<g>
		<g>
			<polygon points="122.435,66.783 122.435,122.435 66.783,122.435 66.783,155.826 122.435,155.826 155.826,155.826 155.826,66.783 
							"/>
			<rect x="155.826" y="155.826" width="33.391" height="33.391"/>
		</g>
	</g>
</g>
<g>
	<g>
		<g>
			<rect y="189.217" width="33.391" height="89.043"/>
			<rect x="33.391" y="155.826" width="33.391" height="33.391"/>
		</g>
	</g>
</g>
<g>
	<g>
		<polygon points="389.565,122.435 389.565,66.783 356.174,66.783 356.174,155.826 445.217,155.826 445.217,122.435 		"/>
	</g>
</g>
<g>
	<g>
		<rect x="445.217" y="278.261" width="33.391" height="33.391"/>
	</g>
</g>
<g>
	<g>
		<rect x="445.217" y="155.826" width="33.391" height="33.391"/>
	</g>
</g>
<g>
	<g>
		<rect x="478.609" y="189.217" width="33.391" height="89.043"/>
	</g>
</g>
<g>
	<g>
		<rect x="322.783" y="33.391" width="33.391" height="33.391"/>
	</g>
</g>
</svg>